<svg xmlns="http://www.w3.org/2000/svg" viewBox="0 0 1200 800" role="img" aria-label="MATTBEAR Pious album cover">
  <defs>
    <linearGradient id="rainbow" x1="0" y1="0" x2="1" y2="0">
      <stop offset="0" stop-color="#ff006e"/><stop offset=".18" stop-color="#ffbe0b"/><stop offset=".34" stop-color="#fff700"/><stop offset=".52" stop-color="#00ff66"/><stop offset=".68" stop-color="#00e5ff"/><stop offset=".84" stop-color="#9b5cff"/><stop offset="1" stop-color="#ff00d4"/>
    </linearGradient>
    <filter id="glow"><feGaussianBlur stdDeviation="5" result="b"/><feMerge><feMergeNode in="b"/><feMergeNode in="SourceGraphic"/></feMerge></filter>
    <filter id="hot"><feGaussianBlur stdDeviation="12" result="b"/><feColorMatrix in="b" type="matrix" values="1 0 0 0 0 0 1 0 0 0 0 0 1 0 0 0 0 0 1 0"/><feMerge><feMergeNode/><feMergeNode in="SourceGraphic"/></feMerge></filter>
    <pattern id="stars" width="55" height="55" patternUnits="userSpaceOnUse"><circle cx="8" cy="12" r="2" fill="#fff" opacity=".65"/><circle cx="36" cy="30" r="1.4" fill="#0ff" opacity=".75"/><circle cx="48" cy="9" r="1.2" fill="#ff0" opacity=".75"/></pattern>
  </defs>
  <rect width="1200" height="800" fill="#050008"/>
  <rect width="1200" height="800" fill="url(#stars)" opacity=".55"/>
  <rect x="20" y="20" width="1160" height="760" rx="34" fill="none" stroke="url(#rainbow)" stroke-width="10" filter="url(#glow)"/>
  <text x="600" y="112" text-anchor="middle" font-family="Impact,Arial Black,sans-serif" font-size="88" fill="#ffd300" stroke="#fff" stroke-width="2" filter="url(#hot)">🙏 MATTBEAR 🙏</text>
  <text x="600" y="176" text-anchor="middle" font-family="Brush Script MT,cursive" font-size="84" fill="#ff4ce6" filter="url(#glow)">- Pious -</text>
  <g filter="url(#glow)">
    <rect x="390" y="205" width="420" height="90" rx="18" fill="#111" stroke="#ffbf00" stroke-width="8"/>
    <text x="600" y="264" text-anchor="middle" font-family="Impact,Arial Black,sans-serif" font-size="50" fill="#fff">OUT NOW!</text>
  </g>
  <g transform="translate(420 320)">
    <ellipse cx="180" cy="160" rx="145" ry="120" fill="#191006" stroke="#ffbf00" stroke-width="7" filter="url(#glow)"/>
    <circle cx="80" cy="65" r="45" fill="#2c1708" stroke="#00e5ff" stroke-width="6"/>
    <circle cx="280" cy="65" r="45" fill="#2c1708" stroke="#ff00d4" stroke-width="6"/>
    <ellipse cx="180" cy="160" rx="80" ry="58" fill="#3b220f" stroke="#00ff66" stroke-width="6"/>
    <circle cx="145" cy="135" r="13" fill="#00e5ff"/><circle cx="215" cy="135" r="13" fill="#ff00d4"/>
    <ellipse cx="180" cy="162" rx="26" ry="18" fill="#111" stroke="#fff" stroke-width="3"/>
    <path d="M160 195 Q180 220 200 195" fill="none" stroke="#ffbf00" stroke-width="6" stroke-linecap="round"/>
    <path d="M65 105 Q180 25 295 105" fill="none" stroke="url(#rainbow)" stroke-width="16" stroke-linecap="round"/>
    <rect x="30" y="95" width="45" height="105" rx="20" fill="#111" stroke="#00e5ff" stroke-width="8"/>
    <rect x="285" y="95" width="45" height="105" rx="20" fill="#111" stroke="#ff00d4" stroke-width="8"/>
  </g>
  <g filter="url(#glow)">
    <rect x="75" y="235" width="285" height="150" rx="22" fill="#ffea00" stroke="#ff00d4" stroke-width="8" transform="rotate(-6 217 310)"/>
    <text x="217" y="290" text-anchor="middle" font-family="Impact,Arial Black,sans-serif" font-size="46" fill="#111">FREE MP3</text>
    <text x="217" y="345" text-anchor="middle" font-family="Impact,Arial Black,sans-serif" font-size="44" fill="#111">DOWNLOAD</text>
  </g>
  <g filter="url(#glow)">
    <rect x="840" y="240" width="285" height="150" rx="22" fill="#0b0012" stroke="#00e5ff" stroke-width="8" transform="rotate(5 982 315)"/>
    <text x="982" y="300" text-anchor="middle" font-family="Impact,Arial Black,sans-serif" font-size="32" fill="#fff">MILK &amp;</text>
    <text x="982" y="344" text-anchor="middle" font-family="Impact,Arial Black,sans-serif" font-size="32" fill="#ffea00">HONEY POTS</text>
  </g>
  <rect x="185" y="590" width="830" height="92" rx="20" fill="#111" stroke="#ffbf00" stroke-width="8" filter="url(#glow)"/>
  <text x="600" y="650" text-anchor="middle" font-family="Impact,Arial Black,sans-serif" font-size="50" fill="#fff">40 DAYS IN THE DESERT? TRY HIBERNATING.</text>
  <text x="600" y="735" text-anchor="middle" font-family="Arial Black,Arial,sans-serif" font-size="24" fill="#ffea00">MATTBEAR - PIOUS • QUESTION EVERYTHING • BEARICIDE.GITHUB.IO</text>
</svg>